<?xml version="1.0" ?><!-- Uploaded to: SVG Repo, www.svgrepo.com, Generator: SVG Repo Mixer Tools -->
<svg width="800px" height="800px" viewBox="0 -0.33 60.312 60.312" id="search" xmlns="http://www.w3.org/2000/svg"><defs><style>
      .cls-1 {
        fill: #65727f;
      }

      .cls-1, .cls-2 {
        fill-rule: evenodd;
      }

      .cls-2 {
        fill: #699f4c;
      }
    </style></defs><path class="cls-1" d="M647.4,963.751l8.2,8.2-17.074,17.1a2.05,2.05,0,0,1-2.9,0l-5.327-5.31a2.05,2.05,0,0,1,0-2.9Z"
                         id="search-2" transform="translate(-629.688 -930)"/><path class="cls-2" d="M670,930a20,20,0,1,1-20,20A20,20,0,0,1,670,930Zm0,6a14,14,0,1,1-14,14A14,14,0,0,1,670,936Z"
                                                                                   id="search-3" transform="translate(-629.688 -930)"/></svg>
